<svg width="37" height="37" viewBox="0 0 37 37" fill="none" xmlns="http://www.w3.org/2000/svg">
<circle cx="18.5" cy="18.5" r="17.5" stroke="white" stroke-width="2"/>
<path d="M19.12 10.056C20.704 10.056 21.984 10.504 22.96 11.4C23.936 12.296 24.424 13.496 24.424 15C24.424 16.68 23.904 17.928 22.864 18.744C21.824 19.544 20.416 19.944 18.64 19.944L18.568 22.224H16.672L16.576 18.432H17.272C18.856 18.432 20.096 18.192 20.992 17.712C21.888 17.232 22.336 16.328 22.336 15C22.336 14.04 22.048 13.28 21.472 12.72C20.896 12.16 20.12 11.88 19.144 11.88C18.152 11.88 17.368 12.152 16.792 12.696C16.232 13.224 15.952 13.952 15.952 14.88H13.888C13.888 13.92 14.104 13.08 14.536 12.36C14.968 11.624 15.576 11.056 16.36 10.656C17.16 10.256 18.08 10.056 19.12 10.056ZM17.608 27.144C17.192 27.144 16.84 27 16.552 26.712C16.264 26.424 16.12 26.072 16.12 25.656C16.12 25.24 16.264 24.888 16.552 24.6C16.84 24.312 17.192 24.168 17.608 24.168C18.008 24.168 18.344 24.312 18.616 24.6C18.904 24.888 19.048 25.24 19.048 25.656C19.048 26.072 18.904 26.424 18.616 26.712C18.344 27 18.008 27.144 17.608 27.144Z" fill="white"/>
</svg>
