<svg id="Layer_1" height="512" viewBox="0 0 200 200" width="512" xmlns="http://www.w3.org/2000/svg" xmlns:xlink="http://www.w3.org/1999/xlink" data-name="Layer 1"><linearGradient id="New_Gradient_Swatch" gradientUnits="userSpaceOnUse" x1="29.29" x2="170.71" y1="29.29" y2="170.71"><stop offset="0" stop-color="#00cefd"/><stop offset="1" stop-color="#0052e1"/></linearGradient><path d="m117.26 83.13h-33.16v-7.55a16.58 16.58 0 1 1 33.16 0zm13.09 15.61v34.65a7.63 7.63 0 0 1 -7.61 7.61h-45.47a7.63 7.63 0 0 1 -7.62-7.61v-34.65a7.62 7.62 0 0 1 7.62-7.61h45.47a7.62 7.62 0 0 1 7.61 7.61zm-26.35 11.14a4 4 0 0 0 -8 0v12.37a4 4 0 0 0 8 0zm96-9.88a100 100 0 1 1 -100-100 100 100 0 0 1 100 100zm-61.65-1.26a15.62 15.62 0 0 0 -13.09-15.39v-7.77a24.58 24.58 0 1 0 -49.16 0v7.6a15.63 15.63 0 0 0 -14.45 15.56v34.65a15.63 15.63 0 0 0 15.62 15.61h45.47a15.63 15.63 0 0 0 15.61-15.61z" fill="url(#New_Gradient_Swatch)"/></svg>