<svg id="Layer_2" enable-background="new 0 0 100 100" viewBox="0 0 100 100" xmlns="http://www.w3.org/2000/svg"><circle cx="50" cy="50" fill="#39f" r="47.5"/><path d="m67.2854004 45.6651726h-1.3527603v-9.7325287c0-8.7851944-7.1474457-15.9326439-15.9326401-15.9326439s-15.9326439 7.1474495-15.9326439 15.9326439v9.7325287h-1.3527565c-3.8966084 0-7.0516586 3.1618004-7.0516586 7.0516586v20.22472c0 3.8966522 3.1550503 7.0584488 7.0516586 7.0584488h34.5708008c3.8966064 0 7.0516586-3.1617966 7.0516586-7.0584488v-20.22472c0-3.8898582-3.1550522-7.0516586-7.0516586-7.0516586zm-14.0629082 18.3640404v5.7505417c0 1.7730331-1.4359589 3.2224884-3.2224922 3.2224884s-3.2224922-1.4494553-3.2224922-3.2224884v-5.7505417c-1.7595406-1.0786781-2.9258194-3.0202522-2.9258194-5.22472 0-3.3910294 2.7572823-6.1415634 6.1483116-6.1415634s6.1483116 2.7505341 6.1483116 6.1415634c0 2.2044677-1.1662788 4.1460418-2.9258194 5.22472zm5.654995-18.3640404h-17.7549744v-9.7325287c0-4.8952103 3.9822769-8.8774872 8.8774872-8.8774872s8.8774872 3.9822769 8.8774872 8.8774872z" fill="#fff"/></svg>