<svg width="15" height="16" viewBox="0 0 15 16" fill="none" xmlns="http://www.w3.org/2000/svg">
<path d="M6.34284 1.32935C6.62093 0.365709 7.98633 0.365709 8.26442 1.32935L9.18882 4.53259C9.31234 4.96062 9.70412 5.25532 10.1496 5.25532H13.3711C14.3109 5.25532 14.7317 6.43427 14.0043 7.02934L11.2019 9.32176C10.8922 9.57509 10.7633 9.98863 10.8743 10.373L11.8955 13.9117C12.1675 14.8543 11.0609 15.5842 10.3015 14.963L7.9368 13.0286C7.56846 12.7273 7.03881 12.7273 6.67047 13.0286L4.30575 14.963C3.54639 15.5842 2.43978 14.8543 2.71179 13.9117L3.73299 10.373C3.84392 9.98863 3.71505 9.57509 3.40536 9.32176L0.602979 7.02934C-0.124466 6.43427 0.296316 5.25532 1.23615 5.25532H4.45765C4.90314 5.25532 5.29492 4.96062 5.41844 4.53259L6.34284 1.32935Z" fill="#FF9110"/>
</svg>
