<svg width="24" height="24" viewBox="0 0 24 24" fill="none" xmlns="http://www.w3.org/2000/svg">
<g clip-path="url(#clip0_15_3938)">
<mask id="mask0_15_3938" style="mask-type:luminance" maskUnits="userSpaceOnUse" x="0" y="0" width="24" height="24">
<path d="M0 0H24V24H0V0Z" fill="white"/>
</mask>
<g mask="url(#mask0_15_3938)">
<path d="M22 12H23M12 2V1M12 23V22M20 20L19 19M20 4L19 5M4 20L5 19M4 4L5 5M1 12H2M9.952 9.623L11.511 6.318C11.553 6.22337 11.6216 6.14295 11.7084 6.08652C11.7952 6.03008 11.8965 6.00003 12 6.00003C12.1035 6.00003 12.2048 6.03008 12.2916 6.08652C12.3784 6.14295 12.447 6.22337 12.489 6.318L14.048 9.623L17.533 10.156C17.98 10.224 18.158 10.8 17.835 11.13L15.313 13.7L15.908 17.331C15.985 17.798 15.517 18.153 15.117 17.933L12 16.218L8.883 17.933C8.483 18.153 8.015 17.798 8.092 17.331L8.687 13.701L6.165 11.13C5.842 10.8 6.02 10.224 6.467 10.156L9.952 9.623Z" stroke="black" stroke-width="1.5" stroke-linecap="round" stroke-linejoin="round"/>
</g>
</g>
<defs>
<clipPath id="clip0_15_3938">
<rect width="24" height="24" fill="white"/>
</clipPath>
</defs>
</svg>
