<svg width="24" height="24" viewBox="0 0 24 24" fill="none" xmlns="http://www.w3.org/2000/svg">
<path d="M14.363 5.652L15.843 4.172C16.0287 3.9862 16.2492 3.83881 16.4919 3.73825C16.7346 3.63769 16.9948 3.58593 17.2575 3.58593C17.5202 3.58593 17.7804 3.63769 18.0231 3.73825C18.2658 3.83881 18.4863 3.9862 18.672 4.172L20.086 5.586C20.4609 5.96106 20.6716 6.46967 20.6716 7C20.6716 7.53033 20.4609 8.03895 20.086 8.414L18.606 9.894M14.363 5.652L4.747 15.267C4.41498 15.599 4.21037 16.0373 4.169 16.505L3.927 19.245C3.914 19.3907 3.93311 19.5374 3.98298 19.6749C4.03284 19.8123 4.11225 19.9372 4.21561 20.0407C4.31897 20.1441 4.44376 20.2236 4.58118 20.2736C4.71861 20.3236 4.86533 20.3429 5.011 20.33L7.751 20.088C8.21943 20.0471 8.65846 19.8424 8.991 19.51L18.606 9.894M14.363 5.652L18.606 9.894" stroke="black" stroke-width="1.5" stroke-linecap="round" stroke-linejoin="round"/>
</svg>
