<svg viewBox="0 0 32 32" fill="black" xmlns="http://www.w3.org/2000/svg">
<path d="M16 4C22.6275 4 28 9.3725 28 16C28 21.328 24.526 25.8425 19.7205 27.409C19.722 27.4045 19.724 27.398 19.724 27.398C19.724 27.398 18.914 27.0185 18.931 26.341C18.95 25.5955 18.931 23.8555 18.931 23.217C18.931 22.1205 18.237 21.3435 18.237 21.3435C18.237 21.3435 23.679 21.4045 23.679 15.598C23.679 13.3575 22.508 12.192 22.508 12.192C22.508 12.192 23.123 9.8 22.295 8.786C21.367 8.686 19.705 9.673 18.995 10.1345C18.995 10.1345 17.87 9.6735 15.9995 9.6735C14.1285 9.6735 13.004 10.1345 13.004 10.1345C12.2945 9.6735 10.632 8.686 9.704 8.786C8.876 9.8005 9.491 12.192 9.491 12.192C9.491 12.192 8.32 13.358 8.32 15.598C8.32 21.4045 13.762 21.3435 13.762 21.3435C13.762 21.3435 13.2135 21.963 13.094 22.874C12.714 23.003 12.1555 23.162 11.704 23.162C10.523 23.162 9.6245 22.014 9.2955 21.483C8.971 20.959 8.3055 20.5195 7.685 20.5195C7.2765 20.5195 7.077 20.724 7.077 20.9575C7.077 21.191 7.65 21.354 8.028 21.787C8.825 22.7 8.8105 24.7535 11.6505 24.7535C11.959 24.7535 12.5885 24.6775 13.062 24.614C13.059 25.2605 13.0585 25.9425 13.0685 26.341C13.0855 27.0185 12.2755 27.398 12.2755 27.398C12.2755 27.398 12.2775 27.4045 12.279 27.409C7.474 25.8425 4 21.328 4 16C4 9.3725 9.3725 4 16 4Z" fill="inherit"/>
</svg>
