<svg width="24" height="24" viewBox="0 0 24 24" fill="none" xmlns="http://www.w3.org/2000/svg">
<path d="M3 17.4V6.6C3 6.44087 3.06321 6.28826 3.17574 6.17574C3.28826 6.06321 3.44087 6 3.6 6H16.679C16.879 6 17.067 6.1 17.179 6.267L20.779 11.667C20.8448 11.7656 20.8799 11.8815 20.8799 12C20.8799 12.1185 20.8448 12.2344 20.779 12.333L17.179 17.733C17.1241 17.8153 17.0497 17.8827 16.9625 17.9293C16.8753 17.9758 16.7779 18.0001 16.679 18H3.6C3.52121 18 3.44319 17.9845 3.37039 17.9543C3.29759 17.9242 3.23145 17.88 3.17574 17.8243C3.12002 17.7685 3.07583 17.7024 3.04567 17.6296C3.01552 17.5568 3 17.4788 3 17.4Z" stroke="black" stroke-width="1.5"/>
</svg>
