<svg width="24" height="24" viewBox="0 0 24 24" fill="none" xmlns="http://www.w3.org/2000/svg">
<path d="M15 19H9M15 19V8.6C15 8.44087 14.9368 8.28826 14.8243 8.17574C14.7117 8.06321 14.5591 8 14.4 8H9.6C9.44087 8 9.28826 8.06321 9.17574 8.17574C9.06321 8.28826 9 8.44087 9 8.6V19M15 19H20.4C20.5591 19 20.7117 18.9368 20.8243 18.8243C20.9368 18.7117 21 18.5591 21 18.4V15.1C21 14.9409 20.9368 14.7883 20.8243 14.6757C20.7117 14.5632 20.5591 14.5 20.4 14.5H15.6C15.4409 14.5 15.2883 14.5632 15.1757 14.6757C15.0632 14.7883 15 14.9409 15 15.1V19ZM9 19V13.1C9 12.9409 8.93679 12.7883 8.82426 12.6757C8.71174 12.5632 8.55913 12.5 8.4 12.5H3.6C3.44087 12.5 3.28826 12.5632 3.17574 12.6757C3.06321 12.7883 3 12.9409 3 13.1V18.4C3 18.5591 3.06321 18.7117 3.17574 18.8243C3.28826 18.9368 3.44087 19 3.6 19H9ZM15 5H9" stroke="black" stroke-width="1.5" stroke-linecap="round" stroke-linejoin="round"/>
</svg>
