<svg xmlns="http://www.w3.org/2000/svg" width="24" height="24" viewBox="0 0 24 24" fill="none">
    <path d="M5.58794 15.3866C5.33461 15.1021 5.18534 14.7394 5.16479 14.3582V9.60493C5.18528 9.22372 5.33456 8.86093 5.58794 8.57652L5.9226 8.24017C6.03482 8.12715 6.09784 7.97402 6.09784 7.81435C6.09784 7.65468 6.03482 7.50154 5.9226 7.38853L2.37287 3.82025C2.2603 3.70758 2.10791 3.64432 1.94904 3.64432C1.79017 3.64432 1.63777 3.70758 1.52521 3.82025L0.174005 5.17835C0.0623018 5.29163 -0.000366211 5.44467 -0.000366211 5.60417C-0.000366211 5.76366 0.0623018 5.9167 0.174005 6.02999L2.70751 8.57641C2.96135 8.86058 3.11082 9.22348 3.13111 9.60483V14.3581C3.11088 14.7393 2.96138 15.1019 2.70751 15.3858L0.174005 17.9332C0.0623018 18.0465 -0.000366211 18.1996 -0.000366211 18.359C-0.000366211 18.5185 0.0623018 18.6716 0.174005 18.7849L1.52521 20.1429C1.63778 20.2556 1.79018 20.3188 1.94904 20.3188C2.1079 20.3188 2.26029 20.2556 2.37287 20.1429L5.9226 16.5744C6.03481 16.4613 6.09783 16.3082 6.09783 16.1486C6.09783 15.9889 6.03481 15.8358 5.9226 15.7228L5.58794 15.3866Z" fill="#F5F2FC"/>
    <path d="M15.3441 18.383C15.0612 18.6376 14.7004 18.7878 14.3212 18.8089H9.59332C9.21381 18.7878 8.85272 18.6377 8.56945 18.383L8.23559 18.0457C8.12262 17.9334 7.97019 17.8705 7.81137 17.8705C7.65253 17.8705 7.5001 17.9334 7.38714 18.0457L3.83786 21.614C3.72581 21.7274 3.6629 21.8806 3.6629 22.0404C3.6629 22.2001 3.72581 22.3534 3.83786 22.4666L5.18907 23.8248C5.30189 23.9371 5.45424 24 5.61301 24C5.77178 24 5.92412 23.9371 6.03695 23.8248L8.5699 21.277C8.85309 21.0225 9.21407 20.8724 9.59343 20.8514H14.3226C14.7019 20.8723 15.0627 21.0224 15.3456 21.277L17.8797 23.8248C17.9925 23.9371 18.1447 24 18.3034 24C18.4621 24 18.6144 23.9371 18.7271 23.8248L20.0783 22.4666C20.1904 22.3534 20.2533 22.2001 20.2533 22.0404C20.2533 21.8806 20.1904 21.7274 20.0783 21.614L16.5264 18.0455C16.4138 17.9332 16.2615 17.8703 16.1029 17.8703C15.9443 17.8703 15.7919 17.9332 15.6792 18.0455L15.3441 18.383Z" fill="#F5F2FC"/>
    <path d="M18.4106 8.61318C18.6646 8.89789 18.8143 9.26122 18.8349 9.64307V14.3946C18.8142 14.7762 18.6644 15.1392 18.4106 15.4236L18.0758 15.7607C17.9639 15.874 17.9012 16.027 17.9012 16.1866C17.9012 16.3461 17.9639 16.4992 18.0758 16.6124L21.6266 20.1803C21.7391 20.2929 21.8916 20.3561 22.0503 20.3561C22.2092 20.3561 22.3615 20.2929 22.4741 20.1803L23.8253 18.8214C23.9374 18.7083 24.0004 18.5552 24.0004 18.3955C24.0004 18.2359 23.9374 18.0827 23.8253 17.9697L21.2924 15.4232C21.0384 15.1388 20.8885 14.7757 20.8678 14.3941L20.8685 9.64262C20.8889 9.26079 21.0384 8.89745 21.2924 8.61272L23.8253 6.0663C23.9374 5.95342 24.0004 5.80043 24.0004 5.64093C24.0004 5.48144 23.9374 5.32845 23.8253 5.21557L22.4741 3.85668C22.4184 3.80075 22.3524 3.75637 22.2797 3.7261C22.207 3.69583 22.1291 3.68024 22.0503 3.68024C21.9717 3.68024 21.8937 3.69583 21.821 3.7261C21.7483 3.75637 21.6822 3.80075 21.6266 3.85668L18.0758 7.42439C17.9639 7.53759 17.9012 7.69069 17.9012 7.85027C17.9012 8.00985 17.9639 8.16294 18.0758 8.27615L18.4106 8.61318Z" fill="#AE99E8"/>
    <path d="M8.65232 5.61689C8.93516 5.36193 9.29615 5.21168 9.67553 5.19102H14.4038C14.783 5.21204 15.1438 5.36224 15.4269 5.61689L15.7623 5.95392C15.8178 6.00985 15.8839 6.0542 15.9565 6.08447C16.0292 6.11473 16.1071 6.13032 16.1857 6.13032C16.2644 6.13032 16.3423 6.11473 16.4149 6.08447C16.4876 6.0542 16.5536 6.00985 16.6093 5.95392L20.1594 2.38542C20.2714 2.27213 20.3343 2.11888 20.3343 1.95915C20.3343 1.79942 20.2714 1.64617 20.1594 1.53288L18.8082 0.176371C18.6958 0.0634371 18.5433 0 18.3843 0C18.2254 0 18.0729 0.0634371 17.9605 0.176371L15.427 2.7228C15.1439 2.97744 14.7831 3.12764 14.4039 3.14866H9.67553C9.29615 3.128 8.93516 2.97775 8.65232 2.7228L6.11881 0.176371C6.006 0.0641245 5.85367 0.00116048 5.69492 0.00116048C5.53619 0.00116048 5.38386 0.0641245 5.27104 0.176371L3.91984 1.53446C3.80782 1.64774 3.74493 1.80096 3.74493 1.96068C3.74493 2.12039 3.80782 2.27361 3.91984 2.38689L7.46923 5.95381C7.58168 6.06675 7.73414 6.13018 7.89312 6.13018C8.05208 6.13018 8.20455 6.06675 8.317 5.95381L8.65232 5.61689Z" fill="#F5F2FC"/>
</svg>