<svg viewBox="0 0 24 24" fill="none" xmlns="http://www.w3.org/2000/svg">
<path d="M6.5 10V6.46C6.50003 6.11624 6.58866 5.77829 6.75734 5.47876C6.92602 5.17923 7.16906 4.92824 7.463 4.75L10.963 2.628C11.2757 2.4384 11.6343 2.33815 12 2.33815C12.3657 2.33815 12.7243 2.4384 13.037 2.628L16.537 4.749C16.8309 4.92724 17.074 5.17823 17.2427 5.47776C17.4113 5.77729 17.5 6.11524 17.5 6.459V10M16 21H20C20.5304 21 21.0391 20.7893 21.4142 20.4142C21.7893 20.0391 22 19.5304 22 19V14.46C22 14.1162 21.9113 13.7783 21.7427 13.4788C21.574 13.1792 21.3309 12.9282 21.037 12.75L17.531 10.625C17.2198 10.4364 16.8631 10.3363 16.4992 10.3354C16.1353 10.3345 15.7781 10.4329 15.466 10.62L14.833 11M11 21H4C3.46957 21 2.96086 20.7893 2.58579 20.4142C2.21071 20.0391 2 19.5304 2 19V14.46C2.00003 14.1162 2.08866 13.7783 2.25734 13.4788C2.42602 13.1792 2.66906 12.9282 2.963 12.75L6.463 10.628C6.77567 10.4384 7.13434 10.3382 7.5 10.3382C7.86566 10.3382 8.22433 10.4384 8.537 10.628L12.037 12.749C12.3311 12.9273 12.5742 13.1785 12.7429 13.4782C12.9116 13.7779 13.0001 14.1161 13 14.46V19C13 19.5304 12.7893 20.0391 12.4142 20.4142C12.0391 20.7893 11.5304 21 11 21Z" stroke="inherit" stroke-width="1.5" stroke-linecap="round" stroke-linejoin="round"/>
<path d="M9 21V17.6C9 17.4409 8.93679 17.2883 8.82426 17.1757C8.71174 17.0632 8.55913 17 8.4 17H6.6C6.44087 17 6.28826 17.0632 6.17574 17.1757C6.06321 17.2883 6 17.4409 6 17.6V21M18 21V17.6C18 17.4409 17.9368 17.2883 17.8243 17.1757C17.7117 17.0632 17.5591 17 17.4 17H16" stroke="inherit" stroke-width="1.5" stroke-linecap="round" stroke-linejoin="round"/>
</svg>
