<svg width="34" height="34" viewBox="0 0 34 34" fill="none" xmlns="http://www.w3.org/2000/svg">
<path d="M0 0H33.734V33.734H0V0Z" fill="white" fill-opacity="0.01"/>
<path d="M3.51392 13.3529H30.22V28.1115C30.22 28.8878 29.5907 29.5171 28.8144 29.5171H4.9195C4.14322 29.5171 3.51392 28.8878 3.51392 28.1115V13.3529Z" stroke="white" stroke-linejoin="round"/>
<path d="M3.51392 6.32498C3.51392 5.5487 4.14322 4.9194 4.9195 4.9194H28.8144C29.5907 4.9194 30.22 5.5487 30.22 6.32498V13.3529H3.51392V6.32498Z" stroke="white" stroke-linejoin="round"/>
<path d="M11.2446 2.81104V8.43336" stroke="white" stroke-linecap="round" stroke-linejoin="round"/>
<path d="M22.4893 2.81104V8.43336" stroke="white" stroke-linecap="round" stroke-linejoin="round"/>
<path d="M11.375 24H10.738L8.176 20.115V24H7.539V19.114H8.176L10.738 22.992V19.114H11.375V24ZM15.9609 21.935C15.9609 22.0563 15.9539 22.1847 15.9399 22.32H12.8739C12.8972 22.698 13.0255 22.9943 13.2589 23.209C13.4969 23.419 13.7839 23.524 14.1199 23.524C14.3952 23.524 14.6239 23.461 14.8059 23.335C14.9925 23.2043 15.1232 23.0317 15.1979 22.817H15.8839C15.7812 23.1857 15.5759 23.4867 15.2679 23.72C14.9599 23.9487 14.5772 24.063 14.1199 24.063C13.7559 24.063 13.4292 23.9813 13.1399 23.818C12.8552 23.6547 12.6312 23.4237 12.4679 23.125C12.3045 22.8217 12.2229 22.4717 12.2229 22.075C12.2229 21.6783 12.3022 21.3307 12.4609 21.032C12.6195 20.7333 12.8412 20.5047 13.1259 20.346C13.4152 20.1827 13.7465 20.101 14.1199 20.101C14.4839 20.101 14.8059 20.1803 15.0859 20.339C15.3659 20.4977 15.5805 20.717 15.7299 20.997C15.8839 21.2723 15.9609 21.585 15.9609 21.935ZM15.3029 21.802C15.3029 21.5593 15.2492 21.3517 15.1419 21.179C15.0345 21.0017 14.8875 20.8687 14.7009 20.78C14.5189 20.6867 14.3159 20.64 14.0919 20.64C13.7699 20.64 13.4945 20.7427 13.2659 20.948C13.0419 21.1533 12.9135 21.438 12.8809 21.802H15.3029ZM21.9117 20.164L20.7147 24H20.0567L19.1327 20.955L18.2087 24H17.5507L16.3467 20.164H16.9977L17.8797 23.384L18.8317 20.164H19.4827L20.4137 23.391L21.2817 20.164H21.9117ZM23.9019 24.063C23.6079 24.063 23.3442 24.014 23.1109 23.916C22.8775 23.8133 22.6932 23.6733 22.5579 23.496C22.4225 23.314 22.3479 23.1063 22.3339 22.873H22.9919C23.0105 23.0643 23.0992 23.2207 23.2579 23.342C23.4212 23.4633 23.6335 23.524 23.8949 23.524C24.1375 23.524 24.3289 23.4703 24.4689 23.363C24.6089 23.2557 24.6789 23.1203 24.6789 22.957C24.6789 22.789 24.6042 22.6653 24.4549 22.586C24.3055 22.502 24.0745 22.4203 23.7619 22.341C23.4772 22.2663 23.2439 22.1917 23.0619 22.117C22.8845 22.0377 22.7305 21.9233 22.5999 21.774C22.4739 21.62 22.4109 21.4193 22.4109 21.172C22.4109 20.976 22.4692 20.7963 22.5859 20.633C22.7025 20.4697 22.8682 20.3413 23.0829 20.248C23.2975 20.15 23.5425 20.101 23.8179 20.101C24.2425 20.101 24.5855 20.2083 24.8469 20.423C25.1082 20.6377 25.2482 20.9317 25.2669 21.305H24.6299C24.6159 21.1043 24.5342 20.9433 24.3849 20.822C24.2402 20.7007 24.0442 20.64 23.7969 20.64C23.5682 20.64 23.3862 20.689 23.2509 20.787C23.1155 20.885 23.0479 21.0133 23.0479 21.172C23.0479 21.298 23.0875 21.403 23.1669 21.487C23.2509 21.5663 23.3535 21.6317 23.4749 21.683C23.6009 21.7297 23.7735 21.7833 23.9929 21.844C24.2682 21.9187 24.4922 21.9933 24.6649 22.068C24.8375 22.138 24.9845 22.2453 25.1059 22.39C25.2319 22.5347 25.2972 22.7237 25.3019 22.957C25.3019 23.167 25.2435 23.356 25.1269 23.524C25.0102 23.692 24.8445 23.825 24.6299 23.923C24.4199 24.0163 24.1772 24.063 23.9019 24.063Z" fill="white"/>
</svg>
