<svg fill="none" viewBox="0 0 24 24" xmlns="http://www.w3.org/2000/svg"><path d="m12 20c1.4971 0 2.8538-.3509 4.0702-1.0526 1.228-.7018 2.1871-1.6609 2.8772-2.8772.7017-1.2281 1.0526-2.5848 1.0526-4.0702 0-1.4971-.3509-2.8538-1.0526-4.07018-.6901-1.22807-1.6492-2.18713-2.8772-2.87719-1.2164-.70175-2.5731-1.05263-4.0702-1.05263-1.4854 0-2.84211.35088-4.07018 1.05263-1.21637.69006-2.17543 1.64912-2.87719 2.87719-.70175 1.21638-1.05263 2.57308-1.05263 4.07018 0 1.4854.35088 2.8421 1.05263 4.0702.70176 1.2163 1.66082 2.1754 2.87719 2.8772 1.22807.7017 2.58478 1.0526 4.07018 1.0526zm0 2c-1.8012 0-3.47368-.4444-5.01754-1.3333-1.53217-.9006-2.74854-2.117-3.64913-3.6492-.88889-1.5438-1.33333-3.2163-1.33333-5.0175 0-1.8129.44444-3.48538 1.33333-5.01754.90059-1.53217 2.11696-2.74269 3.64913-3.63158 1.54386-.90059 3.21634-1.35088 5.01754-1.35088 1.8129 0 3.4854.45029 5.0175 1.35088 1.5322.88889 2.7427 2.10526 3.6316 3.64912.9006 1.53216 1.3509 3.1988 1.3509 5s-.4503 3.4737-1.3509 5.0175c-.8889 1.5322-2.1052 2.7486-3.6491 3.6492-1.5322.8889-3.1988 1.3333-5 1.3333zm-4-11.3333c.36257 0 .67251.1345.92982.4035.26901.2573.40351.5672.40351.9298s-.1345.6784-.40351.9474c-.25731.2573-.56725.3859-.92982.3859s-.67836-.1286-.94737-.3859c-.25731-.269-.38596-.5848-.38596-.9474s.12865-.6725.38596-.9298c.26901-.269.5848-.4035.94737-.4035zm4 0c.3626 0 .6725.1345.9298.4035.269.2573.4035.5672.4035.9298s-.1345.6784-.4035.9474c-.2573.2573-.5672.3859-.9298.3859s-.6784-.1286-.9474-.3859c-.2573-.269-.3859-.5848-.3859-.9474s.1286-.6725.3859-.9298c.269-.269.5848-.4035.9474-.4035zm4 0c.3626 0 .6725.1345.9298.4035.269.2573.4035.5672.4035.9298s-.1345.6784-.4035.9474c-.2573.2573-.5672.3859-.9298.3859s-.6784-.1286-.9474-.3859c-.2573-.269-.3859-.5848-.3859-.9474s.1286-.6725.3859-.9298c.269-.269.5848-.4035.9474-.4035z" fill="rgb(0,0,0)"/></svg>