<svg width="36" height="36" viewBox="0 0 36 36" fill="none" xmlns="http://www.w3.org/2000/svg">
<path fill-rule="evenodd" clip-rule="evenodd" d="M17.6667 34.3333C26.8714 34.3333 34.3333 26.8714 34.3333 17.6667C34.3333 8.46192 26.8714 1 17.6667 1C8.46192 1 1 8.46192 1 17.6667C1 26.8714 8.46192 34.3333 17.6667 34.3333Z" stroke="white" stroke-width="2" strokeLinecap="round" strokeLinejoin="round"/>
<path d="M17.6664 16.8332C19.9676 16.8332 21.8331 14.9677 21.8331 12.6665C21.8331 10.3654 19.9676 8.49988 17.6664 8.49988C15.3653 8.49988 13.4998 10.3654 13.4998 12.6665C13.4998 14.9677 15.3653 16.8332 17.6664 16.8332Z" stroke="white" stroke-width="2" strokeLinejoin="round"/>
<path d="M6.01831 29.6099C6.30473 25.267 9.91798 21.8332 14.3333 21.8332H21C25.4095 21.8332 29.0191 25.2579 29.3139 29.5926" stroke="white" stroke-width="2" strokeLinecap="round" strokeLinejoin="round"/>
</svg>
