<svg width="29" height="29" viewBox="0 0 29 29" fill="none" xmlns="http://www.w3.org/2000/svg">
<path d="M10.0001 1H2.50002C1.67158 1 1 1.67158 1 2.50002V10.0001C1 10.8286 1.67158 11.5002 2.50002 11.5002H10.0001C10.8286 11.5002 11.5002 10.8286 11.5002 10.0001V2.50002C11.5002 1.67158 10.8286 1 10.0001 1Z" stroke="white" stroke-linejoin="round"/>
<path d="M10.0001 17.5002H2.50002C1.67158 17.5002 1 18.1718 1 19.0003V26.5004C1 27.3288 1.67158 28.0004 2.50002 28.0004H10.0001C10.8286 28.0004 11.5002 27.3288 11.5002 26.5004V19.0003C11.5002 18.1718 10.8286 17.5002 10.0001 17.5002Z" stroke="white" stroke-linejoin="round"/>
<path d="M26.5001 1H19C18.1716 1 17.5 1.67158 17.5 2.50002V10.0001C17.5 10.8286 18.1716 11.5002 19 11.5002H26.5001C27.3286 11.5002 28.0002 10.8286 28.0002 10.0001V2.50002C28.0002 1.67158 27.3286 1 26.5001 1Z" stroke="white" stroke-linejoin="round"/>
<path d="M26.5001 17.5002H19C18.1716 17.5002 17.5 18.1718 17.5 19.0003V26.5004C17.5 27.3288 18.1716 28.0004 19 28.0004H26.5001C27.3286 28.0004 28.0002 27.3288 28.0002 26.5004V19.0003C28.0002 18.1718 27.3286 17.5002 26.5001 17.5002Z" stroke="white" stroke-linejoin="round"/>
</svg>
