<svg viewBox="0 0 24 24" fill="none" xmlns="http://www.w3.org/2000/svg">
<path d="M4 18V21M5 10V5C5 4.46957 5.21071 3.96086 5.58579 3.58579C5.96086 3.21071 6.46957 3 7 3H17C17.5304 3 18.0391 3.21071 18.4142 3.58579C18.7893 3.96086 19 4.46957 19 5V10" stroke="inherit" stroke-width="1.5" stroke-linecap="round" stroke-linejoin="round"/>
<path d="M20 18H4V14.95C3.53654 14.8554 3.10943 14.6313 2.76828 14.3036C2.42712 13.9759 2.18592 13.5582 2.07269 13.099C1.95946 12.6397 1.97884 12.1577 2.12859 11.7091C2.27833 11.2604 2.5523 10.8634 2.91866 10.5642C3.28503 10.265 3.72876 10.0759 4.19832 10.0188C4.66788 9.9617 5.14399 10.039 5.57137 10.2417C5.99875 10.4444 6.35985 10.7642 6.61273 11.164C6.86562 11.5637 6.9999 12.027 7 12.5V14H17V12.5C17 11.837 17.2634 11.2011 17.7322 10.7322C18.2011 10.2634 18.837 10 19.5 10C20.12 9.99938 20.7181 10.2291 21.1782 10.6447C21.6383 11.0602 21.9275 11.6319 21.9899 12.2488C22.0522 12.8656 21.883 13.4836 21.5153 13.9827C21.1476 14.4819 20.6076 14.8266 20 14.95V18ZM20 18V21" stroke="inherit" stroke-width="1.5" stroke-linecap="round" stroke-linejoin="round"/>
</svg>
