<svg width="24" height="24" viewBox="0 0 24 24" fill="none" xmlns="http://www.w3.org/2000/svg">
<path d="M13.806 5L12.816 3.004C12.7405 2.85232 12.6241 2.72471 12.4801 2.63551C12.336 2.54631 12.1699 2.49905 12.0005 2.49905C11.8311 2.49905 11.665 2.54631 11.5209 2.63551C11.3769 2.72471 11.2605 2.85232 11.185 3.004L10.689 4.002M15.011 7.427L15.413 8.236L16.865 8.447M19.77 8.87L21.221 9.08C21.3885 9.10323 21.5461 9.17309 21.6759 9.28161C21.8056 9.39013 21.9022 9.53293 21.9546 9.69372C22.0071 9.85452 22.0133 10.0268 21.9725 10.191C21.9317 10.3551 21.8456 10.5045 21.724 10.622L20.674 11.639M18.572 13.674L17.522 14.692L17.77 16.129M18.266 19.004L18.514 20.441C18.641 21.18 17.861 21.743 17.194 21.394L15.896 20.715M10.428 19.5L12 18.678L13.299 19.357M5.671 19.369L5.486 20.441C5.359 21.18 6.139 21.743 6.806 21.394L7.653 20.951M6.253 16L6.478 14.692L5.783 14.019M3.699 12L2.276 10.622C2.15439 10.5045 2.06828 10.3551 2.0275 10.191C1.98672 10.0268 1.99291 9.85452 2.04536 9.69372C2.09781 9.53293 2.1944 9.39013 2.32413 9.28161C2.45385 9.17309 2.61147 9.10323 2.779 9.08L3.889 8.919M7 8.467L8.587 8.236L9.391 6.618" stroke="black" stroke-width="1.5" stroke-linecap="round" stroke-linejoin="round"/>
</svg>
