<svg width="24" height="24" viewBox="0 0 24 24" fill="none" xmlns="http://www.w3.org/2000/svg">
<path d="M12.815 3.004C12.7394 2.85259 12.6231 2.72523 12.4791 2.63622C12.3352 2.54721 12.1692 2.50006 12 2.50006C11.8307 2.50006 11.6648 2.54721 11.5209 2.63622C11.3769 2.72523 11.2606 2.85259 11.185 3.004L10.689 4.002M12 18.678L10.428 19.5M5.671 19.369L5.486 20.441C5.359 21.18 6.139 21.743 6.806 21.394L7.653 20.951M6.253 16L6.478 14.692L5.783 14.019M3.699 12L2.276 10.622C2.15439 10.5045 2.06828 10.3551 2.0275 10.191C1.98672 10.0268 1.99291 9.85452 2.04536 9.69373C2.09781 9.53294 2.1944 9.39013 2.32413 9.28161C2.45385 9.17309 2.61147 9.10323 2.779 9.08L3.889 8.919M7 8.467L8.587 8.236L9.391 6.618" stroke="black" stroke-width="1.5" stroke-linecap="round" stroke-linejoin="round"/>
<path d="M15.413 8.236L12.815 3.004C12.7405 2.85168 12.6245 2.72354 12.4802 2.63436C12.336 2.54518 12.1696 2.4986 12 2.5V18.678L17.195 21.394C17.861 21.743 18.641 21.18 18.514 20.441L17.522 14.691L21.724 10.621C21.845 10.5034 21.9306 10.3542 21.971 10.1903C22.0115 10.0265 22.0051 9.85457 21.9527 9.69415C21.9003 9.53372 21.804 9.39122 21.6746 9.28283C21.5453 9.17444 21.3881 9.10452 21.221 9.081L15.413 8.236Z" stroke="black" stroke-width="1.5" stroke-linecap="round" stroke-linejoin="round"/>
</svg>
