<svg width="34" height="34" viewBox="0 0 34 34" fill="none" xmlns="http://www.w3.org/2000/svg">
<path d="M0 0H33.734V33.734H0V0Z" fill="white" fill-opacity="0.01"/>
<path d="M15.052 13.0597C13.6316 13.7381 12.6504 15.1878 12.6504 16.8668C12.6504 19.1956 14.5383 21.0835 16.8671 21.0835C18.5461 21.0835 19.9959 20.1023 20.6743 18.682" stroke="black" stroke-width="2.81116" stroke-linecap="round" stroke-linejoin="round"/>
<path d="M19.8752 8.23709C18.9334 7.90896 17.9213 7.73059 16.8677 7.73059C11.8219 7.73059 7.73145 11.821 7.73145 16.8669C7.73145 21.9127 11.8219 26.0031 16.8677 26.0031C21.9135 26.0031 26.004 21.9127 26.004 16.8669C26.004 15.8132 25.8256 14.8012 25.4975 13.8594" stroke="black" stroke-width="2.81116" stroke-linecap="round" stroke-linejoin="round"/>
<path d="M23.5913 4.52073C21.594 3.43067 19.303 2.81116 16.8673 2.81116C9.10452 2.81116 2.81152 9.10416 2.81152 16.867C2.81152 24.6298 9.10452 30.9228 16.8673 30.9228C24.6302 30.9228 30.9231 24.6298 30.9231 16.867C30.9231 14.4313 30.3036 12.1404 29.2136 10.143" stroke="black" stroke-width="2.81116" stroke-linecap="round" stroke-linejoin="round"/>
<path d="M30.923 2.81104L16.8672 16.8668" stroke="black" stroke-width="2.81116" stroke-linecap="round" stroke-linejoin="round"/>
</svg>
