<svg width="24" height="24" viewBox="0 0 24 24" fill="none" xmlns="http://www.w3.org/2000/svg">
<path d="M17 22H7C6.46957 22 5.96086 21.7893 5.58579 21.4142C5.21072 21.0391 5 20.5304 5 20V11.182C5.00027 11.0636 4.96547 10.9477 4.9 10.849L3.1 8.15C3.03453 8.0513 2.99974 7.93544 3 7.817V2.6C3 2.44087 3.06322 2.28826 3.17574 2.17574C3.28826 2.06321 3.44087 2 3.6 2H5.4C5.55913 2 5.71174 2.06321 5.82427 2.17574C5.93679 2.28826 6 2.44087 6 2.6V4.4C6 4.55913 6.06322 4.71174 6.17574 4.82426C6.28826 4.93679 6.44087 5 6.6 5H9.4C9.55913 5 9.71174 4.93679 9.82427 4.82426C9.93679 4.71174 10 4.55913 10 4.4V2.6C10 2.44087 10.0632 2.28826 10.1757 2.17574C10.2883 2.06321 10.4409 2 10.6 2H13.4C13.5591 2 13.7117 2.06321 13.8243 2.17574C13.9368 2.28826 14 2.44087 14 2.6V4.4C14 4.55913 14.0632 4.71174 14.1757 4.82426C14.2883 4.93679 14.4409 5 14.6 5H17.4C17.5591 5 17.7117 4.93679 17.8243 4.82426C17.9368 4.71174 18 4.55913 18 4.4V2.6C18 2.52121 18.0155 2.44319 18.0457 2.37039C18.0758 2.29759 18.12 2.23145 18.1757 2.17574C18.2315 2.12002 18.2976 2.07583 18.3704 2.04567C18.4432 2.01552 18.5212 2 18.6 2H20.4C20.5591 2 20.7117 2.06321 20.8243 2.17574C20.9368 2.28826 21 2.44087 21 2.6V7.818C21.0003 7.93644 20.9655 8.0523 20.9 8.151L19.1 10.849C19.0345 10.9477 18.9997 11.0636 19 11.182V20C19 20.5304 18.7893 21.0391 18.4142 21.4142C18.0391 21.7893 17.5304 22 17 22Z" stroke="inherit" stroke-width="1.5"/>
</svg>
