<svg viewBox="0 0 24 24" fill="none" xmlns="http://www.w3.org/2000/svg">
<path d="M17 5C17 5.79565 17.3161 6.55871 17.8787 7.12132C18.4413 7.68393 19.2044 8 20 8C20.7957 8 21.5587 7.68393 22.1213 7.12132C22.6839 6.55871 23 5.79565 23 5C23 4.20435 22.6839 3.44129 22.1213 2.87868C21.5587 2.31607 20.7957 2 20 2C19.2044 2 18.4413 2.31607 17.8787 2.87868C17.3161 3.44129 17 4.20435 17 5Z" stroke="inherit" stroke-width="1.5" stroke-linecap="round" stroke-linejoin="round"/>
<path d="M13 2.05C12.671 2.017 12.338 2 12 2C6.477 2 2 6.477 2 12C2 13.821 2.487 15.53 3.338 17L2.5 21.5L7 20.662C8.51954 21.5411 10.2445 22.0027 12 22C17.523 22 22 17.523 22 12C22 11.662 21.983 11.329 21.95 11" stroke="inherit" stroke-width="1.5" stroke-linecap="round" stroke-linejoin="round"/>
</svg>
