<svg viewBox="0 0 24 24" fill="none" xmlns="http://www.w3.org/2000/svg">
<path d="M7 16H17M9 11H15M10 4V6M14 4V6M17.4 9H6.6C6.44087 9 6.28826 8.93679 6.17574 8.82426C6.06322 8.71174 6 8.55913 6 8.4V4.6C6 4.44087 6.06322 4.28826 6.17574 4.17574C6.28826 4.06321 6.44087 4 6.6 4H17.4C17.5591 4 17.7117 4.06321 17.8243 4.17574C17.9368 4.28826 18 4.44087 18 4.6V8.4C18 8.55913 17.9368 8.71174 17.8243 8.82426C17.7117 8.93679 17.5591 9 17.4 9ZM17.901 21H6.099C5.99062 20.9989 5.88445 20.9693 5.79123 20.914C5.69801 20.8587 5.62106 20.7797 5.56817 20.6851C5.51529 20.5905 5.48834 20.4836 5.49007 20.3752C5.49179 20.2669 5.52213 20.1609 5.578 20.068C6.792 18.06 9.5 13.328 9.5 11V9.6C9.5 9.44087 9.56322 9.28826 9.67574 9.17574C9.78826 9.06321 9.94087 9 10.1 9H13.9C14.0591 9 14.2117 9.06321 14.3243 9.17574C14.4368 9.28826 14.5 9.44087 14.5 9.6V11C14.5 13.327 17.208 18.061 18.422 20.068C18.4779 20.1609 18.5082 20.2669 18.5099 20.3752C18.5117 20.4836 18.4847 20.5905 18.4318 20.6851C18.3789 20.7797 18.302 20.8587 18.2088 20.914C18.1156 20.9693 18.0094 20.9989 17.901 21Z" stroke="inherit" stroke-width="1.5" stroke-linecap="round"/>
</svg>
