<svg viewBox="0 0 24 24" fill="none" xmlns="http://www.w3.org/2000/svg">
<path d="M4 19V5C4 4.46957 4.21071 3.96086 4.58579 3.58579C4.96086 3.21071 5.46957 3 6 3H19.4C19.5591 3 19.7117 3.06321 19.8243 3.17574C19.9368 3.28826 20 3.44087 20 3.6V16.714" stroke="black" stroke-width="1.5" stroke-linecap="round"/>
<path d="M10 14C10 14 10.9 10.882 13 9" stroke="black" stroke-width="1.5" stroke-linecap="round" stroke-linejoin="round"/>
<path d="M12.802 12.425L12.668 12.437C11.8543 12.5129 11.0437 12.2637 10.413 11.744C9.7824 11.2243 9.38299 10.4762 9.302 9.663C9.26202 9.26151 9.30184 8.85608 9.41916 8.47004C9.53647 8.084 9.72898 7.72497 9.98559 7.41362C10.2422 7.10226 10.5579 6.84473 10.9144 6.65584C11.2709 6.46695 11.6613 6.35043 12.063 6.313L15.049 6.033C15.1411 6.02435 15.2329 6.05253 15.3043 6.11137C15.3757 6.17021 15.4209 6.25493 15.43 6.347L15.685 8.927C15.7269 9.34625 15.6854 9.76965 15.563 10.1728C15.4406 10.576 15.2396 10.9509 14.9716 11.2761C14.7036 11.6012 14.3739 11.8701 14.0016 12.0673C13.6292 12.2645 13.2215 12.3861 12.802 12.425Z" stroke="black" stroke-width="1.5" stroke-linecap="round" stroke-linejoin="round"/>
<path d="M6 17H20M6 21H20" stroke="black" stroke-width="1.5" stroke-linecap="round"/>
<path d="M6 21C5.46957 21 4.96086 20.7893 4.58579 20.4142C4.21071 20.0391 4 19.5304 4 19C4 18.4696 4.21071 17.9609 4.58579 17.5858C4.96086 17.2107 5.46957 17 6 17" stroke="black" stroke-width="1.5" stroke-linecap="round" stroke-linejoin="round"/>
</svg>
