<svg viewBox="0 0 32 32" fill="none" xmlns="http://www.w3.org/2000/svg">
<path d="M26.6667 8.00004C26.6667 8.00004 23.61 5.60804 20 5.33337L19.6747 5.98404C22.9387 6.78271 24.436 7.92737 26 9.33337C23.3033 7.95671 20.6407 6.66671 16 6.66671C11.3593 6.66671 8.69668 7.95671 6.00001 9.33337C7.56401 7.92737 9.34534 6.65671 12.3253 5.98404L12 5.33337C8.21268 5.69137 5.33334 8.00004 5.33334 8.00004C5.33334 8.00004 1.91934 12.95 1.33334 22.6667C4.77468 26.6354 10 26.6667 10 26.6667L11.0927 25.21C9.23801 24.5654 7.14334 23.414 5.33334 21.3334C7.49201 22.9667 10.75 24.6667 16 24.6667C21.25 24.6667 24.508 22.9667 26.6667 21.3334C24.8567 23.414 22.762 24.5654 20.9073 25.21L22 26.6667C22 26.6667 27.2253 26.6354 30.6667 22.6667C30.0807 12.95 26.6667 8.00004 26.6667 8.00004ZM11.6667 20C10.378 20 9.33334 18.806 9.33334 17.3334C9.33334 15.8607 10.378 14.6667 11.6667 14.6667C12.9553 14.6667 14 15.8607 14 17.3334C14 18.806 12.9553 20 11.6667 20ZM20.3333 20C19.0447 20 18 18.806 18 17.3334C18 15.8607 19.0447 14.6667 20.3333 14.6667C21.622 14.6667 22.6667 15.8607 22.6667 17.3334C22.6667 18.806 21.622 20 20.3333 20Z" fill="#8C9EFF"/>
</svg>
