<svg width="24" height="24" viewBox="0 0 24 24" fill="none" xmlns="http://www.w3.org/2000/svg">
<path d="M17.5 17.5C20 21 23.949 18.415 23 15C21.575 9.871 20.8 7.016 20.397 5.508C20.2817 5.07619 20.0273 4.69443 19.6732 4.42181C19.3191 4.1492 18.8849 4.00094 18.438 4H5.56199C4.64399 4 3.84399 4.625 3.62099 5.515C2.77999 8.863 2.03299 11.802 1.14399 15C0.195986 18.415 4.14399 21 6.64399 17.5M18 8.5L18.011 8.51M16.49 7L16.501 7.01M16.49 10L16.501 10.01M15 8.5L15.011 8.51M6.99999 7V10M5.49999 8.5H8.49999" stroke="black" stroke-width="1.5" stroke-linecap="round" stroke-linejoin="round"/>
<path d="M8 16C8.53043 16 9.03914 15.7893 9.41421 15.4142C9.78929 15.0391 10 14.5304 10 14C10 13.4696 9.78929 12.9609 9.41421 12.5858C9.03914 12.2107 8.53043 12 8 12C7.46957 12 6.96086 12.2107 6.58579 12.5858C6.21071 12.9609 6 13.4696 6 14C6 14.5304 6.21071 15.0391 6.58579 15.4142C6.96086 15.7893 7.46957 16 8 16ZM16 16C16.5304 16 17.0391 15.7893 17.4142 15.4142C17.7893 15.0391 18 14.5304 18 14C18 13.4696 17.7893 12.9609 17.4142 12.5858C17.0391 12.2107 16.5304 12 16 12C15.4696 12 14.9609 12.2107 14.5858 12.5858C14.2107 12.9609 14 13.4696 14 14C14 14.5304 14.2107 15.0391 14.5858 15.4142C14.9609 15.7893 15.4696 16 16 16Z" stroke="black" stroke-width="1.5" stroke-linecap="round" stroke-linejoin="round"/>
</svg>
