<svg viewBox="0 0 24 24" fill="none" xmlns="http://www.w3.org/2000/svg">
<path d="M9 21H7C5.93913 21 4.92172 20.5786 4.17157 19.8284C3.42143 19.0783 3 18.0609 3 17V10.708C2.99999 10.0202 3.17732 9.34405 3.51487 8.74479C3.85242 8.14554 4.33879 7.64345 4.927 7.287L9.927 4.257C10.5521 3.8782 11.2691 3.67792 12 3.67792C12.7309 3.67792 13.4479 3.8782 14.073 4.257L19.073 7.287C19.6611 7.64336 20.1473 8.14529 20.4849 8.74436C20.8224 9.34342 20.9998 10.0194 21 10.707V17C21 18.0609 20.5786 19.0783 19.8284 19.8284C19.0783 20.5786 18.0609 21 17 21H15M9 21V17C9 16.2044 9.31607 15.4413 9.87868 14.8787C10.4413 14.3161 11.2044 14 12 14C12.7956 14 13.5587 14.3161 14.1213 14.8787C14.6839 15.4413 15 16.2044 15 17V21M9 21H15" stroke="black" stroke-width="1.5" stroke-linecap="round" stroke-linejoin="round"/>
</svg>
