<svg width="24" height="24" viewBox="0 0 24 24" fill="none" xmlns="http://www.w3.org/2000/svg">
<path d="M17.5 17.5C20 21 23.949 18.415 23 15C21.575 9.871 20.8 7.016 20.397 5.508C20.2818 5.07619 20.0274 4.69443 19.6733 4.42181C19.3191 4.1492 18.885 4.00094 18.438 4H5.56205C4.64405 4 3.84405 4.625 3.62105 5.515C2.78005 8.863 2.03305 11.802 1.14405 15C0.196047 18.415 4.14405 21 6.64405 17.5" stroke="black" stroke-width="1.5" stroke-linecap="round" stroke-linejoin="round"/>
<path d="M16.0001 4V6C16.0001 6.53043 15.7893 7.03914 15.4143 7.41421C15.0392 7.78929 14.5305 8 14.0001 8H10.0001C9.46963 8 8.96092 7.78929 8.58585 7.41421C8.21078 7.03914 8.00006 6.53043 8.00006 6V4M8.00006 16C8.53049 16 9.0392 15.7893 9.41427 15.4142C9.78935 15.0391 10.0001 14.5304 10.0001 14C10.0001 13.4696 9.78935 12.9609 9.41427 12.5858C9.0392 12.2107 8.53049 12 8.00006 12C7.46963 12 6.96092 12.2107 6.58585 12.5858C6.21077 12.9609 6.00006 13.4696 6.00006 14C6.00006 14.5304 6.21077 15.0391 6.58585 15.4142C6.96092 15.7893 7.46963 16 8.00006 16ZM16.0001 16C16.5305 16 17.0392 15.7893 17.4143 15.4142C17.7893 15.0391 18.0001 14.5304 18.0001 14C18.0001 13.4696 17.7893 12.9609 17.4143 12.5858C17.0392 12.2107 16.5305 12 16.0001 12C15.4696 12 14.9609 12.2107 14.5858 12.5858C14.2108 12.9609 14.0001 13.4696 14.0001 14C14.0001 14.5304 14.2108 15.0391 14.5858 15.4142C14.9609 15.7893 15.4696 16 16.0001 16Z" stroke="black" stroke-width="1.5" stroke-linecap="round" stroke-linejoin="round"/>
</svg>
