<svg width="24" height="24" viewBox="0 0 24 24" fill="none" xmlns="http://www.w3.org/2000/svg">
<path d="M4 9.5C4 14.071 9.714 17.5 9.714 17.5H14.286C14.286 17.5 20 14.071 20 9.5C20 4.929 16.418 1.5 12 1.5C7.582 1.5 4 4.929 4 9.5Z" stroke="black" stroke-width="1.5" stroke-miterlimit="1.5" stroke-linecap="round" stroke-linejoin="round"/>
<path d="M9 2C6 8 9.99999 17.5 9.99999 17.5M14.884 2C17.884 8 13.884 17.5 13.884 17.5" stroke="black" stroke-width="1.5" stroke-linejoin="round"/>
<path d="M13.4 23H10.6C10.4409 23 10.2883 22.9368 10.1757 22.8243C10.0632 22.7117 10 22.5591 10 22.4V20.6C10 20.4409 10.0632 20.2883 10.1757 20.1757C10.2883 20.0632 10.4409 20 10.6 20H13.4C13.5591 20 13.7117 20.0632 13.8243 20.1757C13.9368 20.2883 14 20.4409 14 20.6V22.4C14 22.5591 13.9368 22.7117 13.8243 22.8243C13.7117 22.9368 13.5591 23 13.4 23Z" stroke="black" stroke-width="1.5" stroke-linecap="round"/>
</svg>
