<svg width="32" height="32" viewBox="0 0 32 32" fill="none" xmlns="http://www.w3.org/2000/svg">
<path d="M16 2.66663C12.4638 2.66663 9.07238 4.07138 6.5719 6.57187C4.07141 9.07235 2.66666 12.4637 2.66666 16C2.66666 19.5362 4.07141 22.9276 6.5719 25.428C9.07238 27.9285 12.4638 29.3333 16 29.3333C19.5362 29.3333 22.9276 27.9285 25.4281 25.428C27.9286 22.9276 29.3333 19.5362 29.3333 16C29.3333 12.4637 27.9286 9.07235 25.4281 6.57187C22.9276 4.07138 19.5362 2.66663 16 2.66663Z" fill="#0288D1"/>
<path d="M9.33334 12.6666H12V22.6666H9.33334V12.6666ZM10.6587 11.3333H10.644C9.84801 11.3333 9.33334 10.74 9.33334 9.99929C9.33334 9.24263 9.86401 8.66663 10.674 8.66663C11.4853 8.66663 11.9847 9.24263 12 9.99929C12 10.74 11.4853 11.3333 10.6587 11.3333ZM23.3333 16.3333C23.3333 14.308 21.692 12.6666 19.6667 12.6666C18.4253 12.6666 17.33 13.2853 16.6667 14.2293V12.6666H14V22.6666H16.6667V17.3333C16.6667 16.2286 17.562 15.3333 18.6667 15.3333C19.7713 15.3333 20.6667 16.2286 20.6667 17.3333V22.6666H23.3333C23.3333 22.6666 23.3333 16.614 23.3333 16.3333Z" fill="white"/>
</svg>
